<?xml version="1.0" standalone="no"?>
<!DOCTYPE svg PUBLIC "-//W3C//DTD SVG 20010904//EN"
 "http://www.w3.org/TR/2001/REC-SVG-20010904/DTD/svg10.dtd">
<svg version="1.0" xmlns="http://www.w3.org/2000/svg"
 width="300.000000pt" height="169.000000pt" viewBox="0 0 300.000000 169.000000"
 preserveAspectRatio="xMidYMid meet">
<metadata>
Created by potrace 1.10, written by Peter Selinger 2001-2011
</metadata>
<g transform="translate(0.000000,169.000000) scale(0.100000,-0.100000)"
fill="#000000" stroke="none">
<path d="M2673 1675 c0 -18 5 -18 37 0 l25 14 -31 1 c-21 0 -31 -5 -31 -15z"/>
<path d="M2609 1638 c-9 -29 -5 -33 27 -30 36 4 44 16 18 26 -16 6 -43 8 -45
4z"/>
<path d="M1125 1620 c-12 -4 -27 -16 -35 -26 -14 -18 -14 -18 5 -3 28 24 58
31 85 21 l24 -9 -27 -7 c-15 -3 -27 -11 -27 -17 0 -7 7 -8 18 -3 9 4 37 9 62
10 36 2 39 1 15 -4 -29 -8 -29 -8 19 -20 27 -7 71 -24 98 -38 28 -14 52 -23
54 -21 10 10 -107 79 -173 102 -78 27 -87 28 -118 15z"/>
<path d="M964 1561 c-2 -2 -4 -9 -4 -15 0 -6 5 -4 10 4 7 11 10 11 10 2 0 -7
5 -10 11 -7 6 4 30 4 54 0 35 -5 43 -9 39 -23 -5 -14 -4 -15 4 -2 9 12 14 11
32 -5 12 -11 23 -19 24 -17 4 10 36 -13 41 -29 4 -10 11 -18 17 -16 15 3 58
-81 58 -116 0 -48 55 -92 134 -107 53 -10 71 -18 92 -43 27 -32 26 -74 -2 -90
-8 -4 -14 -14 -14 -21 0 -7 -12 -26 -27 -41 -24 -24 -25 -26 -6 -16 13 6 30
25 38 41 21 41 49 54 87 41 17 -6 33 -11 34 -11 2 0 4 20 4 45 0 55 -18 100
-57 146 -17 19 -33 41 -36 49 -4 12 -6 11 -6 -3 -1 -10 -5 -15 -11 -12 -5 3
-51 12 -101 20 -97 14 -112 20 -89 36 13 9 12 12 -5 22 -25 15 -106 99 -101
105 3 2 16 -4 30 -14 15 -9 30 -14 33 -10 11 11 -13 28 -69 47 -29 10 -49 18
-44 19 5 0 3 6 -3 14 -9 11 -33 14 -93 13 -44 -1 -82 -4 -84 -6z m357 -232
c11 -6 30 -12 41 -14 34 -7 43 -22 19 -34 -29 -16 -91 10 -91 38 0 24 4 25 31
10z m193 -50 c14 -11 26 -24 26 -27 0 -11 -56 -33 -71 -28 -75 27 -71 24 -53
51 20 31 61 33 98 4z m45 -72 c16 -20 25 -74 13 -81 -20 -12 -42 6 -48 39 -9
49 10 71 35 42z"/>
<path d="M1210 1533 c30 -8 67 -17 83 -20 32 -6 45 -22 26 -34 -13 -8 -22 -79
-10 -79 10 1 51 70 51 85 0 9 6 12 18 8 9 -3 14 -2 9 2 -4 5 -15 9 -25 10 -9
1 -48 11 -86 23 -37 12 -80 22 -95 21 -17 -1 -8 -6 29 -16z"/>
<path d="M575 1510 c-17 -4 -43 -5 -58 -3 -19 3 -25 0 -21 -10 3 -10 17 -12
54 -7 46 6 69 15 59 23 -2 2 -18 1 -34 -3z"/>
<path d="M2920 1510 c0 -5 -7 -6 -17 -3 -11 4 -14 3 -9 -5 4 -7 24 -12 44 -12
35 1 36 2 18 15 -23 17 -36 19 -36 5z"/>
<path d="M624 1501 c6 -9 85 -6 94 4 3 3 -18 5 -47 5 -29 0 -50 -4 -47 -9z"/>
<path d="M943 1493 c-27 -10 -12 -24 21 -18 30 6 35 4 42 -17 8 -26 7 -81 -1
-109 -4 -11 -2 -19 3 -19 6 0 13 12 17 27 l7 28 13 -25 c17 -30 21 -75 5 -50
-6 10 -10 11 -10 3 0 -7 -11 -13 -24 -13 -22 0 -23 3 -23 71 -1 54 -5 75 -18
88 -16 15 -17 15 -5 -8 18 -35 8 -117 -18 -141 -20 -19 -21 -19 -46 25 -25 42
-34 99 -18 109 4 2 8 -11 8 -30 0 -19 6 -40 13 -46 10 -11 10 -8 2 15 -7 18
-7 36 -1 53 7 19 7 31 -1 40 -15 18 -23 18 -46 -3 -10 -10 -14 -15 -9 -10 6 4
21 7 36 6 24 -1 24 -1 -7 -15 -50 -21 -57 -85 -16 -131 10 -10 14 -13 10 -6
-5 7 -7 18 -5 24 7 20 39 -40 36 -66 l-3 -23 -33 28 c-18 15 -34 37 -35 49 -2
31 -17 26 -17 -6 -1 -25 -2 -26 -11 -10 -6 11 -8 33 -5 50 3 18 8 45 11 61 3
16 13 39 23 50 17 21 17 21 -5 3 -11 -10 -24 -31 -28 -45 -12 -52 -80 -182
-98 -188 -25 -8 -16 -15 11 -7 12 3 22 10 22 17 0 19 48 112 49 94 2 -34 24
-69 42 -65 9 3 23 0 30 -5 11 -8 10 -9 -3 -4 -10 3 -18 1 -18 -4 0 -6 11 -10
25 -10 16 0 25 -6 25 -16 0 -12 -6 -15 -25 -10 -18 5 -25 2 -25 -9 0 -26 -16
-16 -18 12 -3 37 -20 53 -33 30 -6 -9 -13 -15 -17 -13 -14 8 0 -73 14 -85 13
-10 14 -6 8 28 -4 26 -2 43 5 47 7 5 11 -8 11 -41 0 -31 3 -43 9 -34 6 9 18
11 38 7 30 -7 46 6 48 41 0 6 16 32 35 57 23 31 36 42 41 34 5 -7 1 -20 -7
-29 -13 -15 -12 -19 18 -37 l33 -21 12 22 c6 12 9 25 7 29 -3 5 0 8 7 8 7 0 9
-9 6 -22 -6 -22 -6 -22 13 2 10 14 15 27 10 28 -6 2 -10 12 -10 23 0 11 -9 38
-19 62 -11 23 -23 53 -26 67 -14 49 -45 69 -82 53z m87 -228 c0 -16 -6 -25
-15 -25 -18 0 -20 20 -2 21 8 0 8 2 -2 6 -11 5 -11 7 0 14 19 12 19 12 19 -16z"/>
<path d="M1144 1477 c3 -14 2 -28 -4 -32 -10 -6 19 -74 33 -75 4 0 3 10 -4 22
-6 11 -11 38 -11 59 1 21 -4 42 -10 45 -7 5 -9 -2 -4 -19z"/>
<path d="M1072 1473 c29 -34 31 -48 3 -23 -27 25 -28 25 -16 2 7 -13 23 -27
36 -32 12 -5 25 -15 28 -22 3 -7 6 -4 6 8 1 11 -5 26 -11 33 -11 11 -10 12 2
6 8 -5 4 4 -9 18 -28 31 -65 40 -39 10z"/>
<path d="M1424 1467 c20 -16 27 -28 21 -37 -5 -9 -4 -11 4 -6 7 5 18 -8 30
-36 11 -24 20 -37 20 -30 2 35 -65 132 -91 132 -7 0 0 -11 16 -23z"/>
<path d="M1841 1449 c-60 -30 -91 -52 -113 -82 -36 -49 -84 -149 -93 -192 -3
-16 5 -2 18 32 30 76 79 155 120 189 33 28 122 71 172 84 29 8 29 8 4 9 -15 1
-63 -17 -108 -40z"/>
<path d="M2065 1480 c4 -6 -10 -10 -32 -11 -44 0 -128 -16 -96 -18 12 0 33
-15 46 -32 18 -23 27 -28 32 -19 5 9 4 11 -3 6 -7 -4 -12 -3 -12 3 0 5 -2 16
-5 23 -4 10 4 14 27 16 18 1 41 5 51 8 30 9 19 -13 -13 -26 -41 -17 -33 -22
15 -9 55 16 101 -1 154 -55 54 -55 49 -72 -6 -23 -21 19 -49 40 -63 47 -21 11
-20 7 10 -25 19 -20 48 -44 64 -52 27 -14 31 -14 42 1 11 15 12 15 18 0 8 -22
9 -21 -14 -27 -11 -3 -20 -11 -19 -19 0 -10 2 -10 6 0 2 6 14 12 26 12 16 0
22 -7 24 -22 2 -36 15 -82 24 -88 5 -3 11 -35 14 -70 10 -112 50 -212 112
-281 40 -45 87 -61 223 -79 46 -7 88 -14 92 -16 10 -6 154 15 183 26 25 10
-53 3 -110 -10 -23 -5 -50 -7 -60 -5 -11 2 -37 7 -57 10 -40 6 -49 24 -23 45
9 7 14 19 11 27 -3 7 1 13 9 13 9 0 12 6 8 16 -5 13 -2 15 14 10 12 -4 26 0
36 12 15 16 15 18 -2 18 -12 0 -17 -6 -14 -16 4 -12 2 -12 -9 2 -13 15 -16 14
-37 -13 -13 -16 -28 -26 -35 -23 -6 3 -3 -1 7 -9 21 -17 22 -27 2 -27 -8 0
-14 -6 -12 -12 1 -7 -3 -12 -10 -11 -7 2 -10 -4 -7 -12 4 -8 1 -15 -5 -15 -6
0 -11 4 -11 8 0 4 -15 6 -32 4 -47 -5 -117 34 -150 85 -16 22 -39 81 -51 129
-14 52 -27 82 -30 74 -4 -8 -4 -5 -2 6 7 27 -28 162 -56 215 -28 56 -85 117
-147 156 -55 36 -137 70 -127 53z"/>
<path d="M1380 1448 c7 -20 6 -28 -2 -28 -6 0 -5 -7 5 -17 16 -19 17 -21 17
-50 0 -13 3 -14 12 -5 13 13 -2 75 -27 107 -14 19 -15 19 -5 -7z"/>
<path d="M1201 1403 c-1 -23 4 -45 9 -48 12 -8 12 42 0 70 -7 16 -9 11 -9 -22z"/>
<path d="M1900 1429 c12 -8 9 -9 -11 -5 -33 7 -111 -42 -147 -94 -24 -34 -23
-34 11 4 24 28 36 35 40 25 4 -10 6 -10 6 3 1 22 68 63 84 51 14 -11 82 9 71
20 -4 4 -21 7 -38 7 -25 0 -28 -2 -16 -11z"/>
<path d="M2920 1425 c0 -18 1 -18 36 0 l29 15 -32 0 c-23 0 -33 -5 -33 -15z"/>
<path d="M1550 1405 c0 -4 9 -27 31 -80 4 -11 10 -29 12 -40 3 -11 5 -2 6 20
0 24 -7 53 -19 73 -18 29 -30 40 -30 27z"/>
<path d="M1097 1353 c7 -63 -12 -140 -39 -154 -10 -5 -16 -14 -13 -20 4 -5 -6
-14 -21 -19 -33 -13 -26 -23 9 -15 41 11 92 68 105 116 l11 44 -5 -59 c-2 -32
-9 -67 -14 -77 -8 -14 -7 -17 4 -13 35 13 34 205 -1 218 -9 4 -11 2 -7 -6 22
-36 -13 -161 -50 -179 -19 -9 -19 -9 -4 4 10 7 22 26 28 41 12 32 12 123 0
151 -5 13 -6 1 -3 -32z"/>
<path d="M1903 1390 c-13 -5 -23 -11 -23 -12 0 -2 24 -3 54 -3 42 0 52 3 44
13 -12 14 -43 15 -75 2z"/>
<path d="M2016 1373 c-36 -19 -28 -26 12 -12 34 12 59 3 100 -35 16 -14 21
-16 17 -5 -7 20 -53 54 -81 61 -11 3 -33 -1 -48 -9z"/>
<path d="M2926 1370 c-54 -21 -74 -36 -63 -47 4 -4 13 -1 19 5 15 15 32 16 23
2 -9 -15 7 -12 31 5 12 8 24 11 28 7 4 -3 4 1 0 11 -4 13 -1 17 15 17 12 0 21
5 21 10 0 14 -18 12 -74 -10z"/>
<path d="M1882 1334 c-17 -14 -37 -35 -43 -47 -9 -19 -8 -20 3 -7 20 24 76 61
106 70 l27 8 -30 1 c-18 0 -43 -10 -63 -25z"/>
<path d="M2615 1351 c-2 -5 12 -11 33 -13 20 -3 46 -8 57 -13 20 -7 20 -7 0 7
-25 18 -82 30 -90 19z"/>
<path d="M1187 1337 c-13 -32 -9 -57 9 -50 13 5 15 -3 13 -45 -2 -30 -7 -49
-12 -45 -6 4 -7 1 -2 -7 6 -10 11 -9 22 5 13 19 9 79 -7 100 -5 6 -10 21 -12
35 -3 22 -4 22 -11 7z"/>
<path d="M494 1290 c48 -28 102 -53 119 -55 30 -5 30 -4 6 4 -15 5 -65 29
-111 55 -114 62 -124 59 -14 -4z"/>
<path d="M1747 1280 c-25 -27 -53 -67 -64 -87 -10 -21 -27 -51 -37 -66 -25
-38 -35 -210 -15 -250 13 -24 14 -19 10 55 -2 44 1 83 6 87 5 3 14 29 20 56
18 78 70 185 114 231 12 13 20 24 17 24 -4 0 -26 -22 -51 -50z"/>
<path d="M2032 1305 c24 -47 32 -79 18 -70 -8 5 -11 0 -8 -16 2 -16 9 -23 21
-21 10 2 17 -3 17 -14 0 -11 -6 -15 -17 -12 -16 4 -18 -2 -14 -45 3 -47 2 -49
-20 -42 -33 10 -32 8 -15 50 19 44 19 48 6 40 -5 -3 -14 -24 -20 -45 -7 -24
-17 -40 -26 -40 -8 0 -12 -4 -9 -10 3 -5 19 -10 36 -10 32 0 35 -7 18 -43 -8
-17 -19 -24 -37 -24 l-25 0 24 13 c18 10 20 13 7 14 -20 0 -58 -37 -58 -57 0
-10 5 -11 19 -3 26 13 31 13 31 -5 0 -8 7 -15 16 -15 14 0 14 3 4 15 -15 18
-11 19 27 4 22 -8 24 -12 13 -19 -8 -6 -30 -10 -49 -10 -19 0 -32 -3 -28 -6 9
-10 88 -11 93 -2 3 4 10 8 15 8 6 0 8 -4 4 -9 -3 -5 8 -9 25 -9 34 1 40 17 10
25 -11 3 -17 10 -13 16 3 5 2 7 -4 4 -5 -4 -25 5 -43 18 -19 14 -29 25 -24 25
6 0 16 11 22 25 8 18 16 23 29 18 15 -6 16 -4 6 8 -7 9 -9 27 -4 49 7 33 8 34
20 15 11 -17 11 -14 6 23 -3 24 -12 53 -19 65 -8 12 -19 39 -25 59 -7 20 -19
42 -28 50 -15 12 -15 10 -1 -17z"/>
<path d="M202 1298 c-7 -7 -12 -25 -12 -40 0 -15 -4 -28 -9 -28 -5 0 -7 -10
-4 -22 4 -19 3 -20 -6 -8 -6 9 -11 10 -11 3 0 -25 52 -53 94 -51 l41 1 -38 4
c-48 5 -76 41 -59 78 14 30 64 34 102 8 36 -24 41 -35 22 -49 -14 -10 -20 -10
-33 2 -21 19 -59 18 -59 -1 0 -8 8 -16 18 -16 9 -1 27 -3 40 -4 12 -1 25 2 28
6 8 14 34 11 32 -3 -2 -7 3 -12 11 -13 8 0 16 -6 19 -13 2 -7 -2 -10 -12 -6
-9 3 -16 2 -16 -3 0 -20 14 -22 33 -6 19 17 20 17 15 -4 -4 -16 -2 -23 8 -23
8 0 14 -4 14 -9 0 -4 14 -24 30 -42 25 -28 22 -21 -16 44 -25 42 -50 77 -55
77 -5 0 -8 3 -7 8 2 4 0 7 -4 7 -3 0 -16 12 -27 27 -12 15 -30 30 -41 33 -11
4 -17 11 -14 17 5 7 -2 9 -20 6 -28 -6 -36 6 -10 16 25 10 84 7 84 -4 0 -5 -8
-10 -17 -10 -10 -1 5 -9 33 -18 36 -13 67 -35 111 -80 33 -34 73 -66 87 -72
30 -11 83 -14 73 -3 -4 3 17 16 46 27 l52 21 25 -37 c17 -27 34 -40 58 -44 35
-7 32 -21 -5 -27 -30 -4 -53 -26 -54 -51 0 -11 -3 -15 -6 -8 -3 9 -12 7 -30
-8 -63 -49 -171 -49 -229 2 -32 28 -115 53 -101 31 4 -6 -4 -14 -18 -17 -27
-7 -45 -40 -45 -83 0 -21 -2 -24 -15 -13 -9 8 -15 8 -15 2 0 -6 -3 -19 -7 -29
-6 -15 -4 -16 8 -6 8 7 26 9 40 6 19 -5 22 -3 12 7 -15 16 -6 68 15 93 26 29
83 22 142 -19 28 -19 54 -33 57 -30 3 3 12 -1 20 -9 12 -13 57 -20 111 -18 17
1 15 -7 -9 -33 -17 -18 -19 -26 -10 -42 17 -32 14 -35 -25 -27 -24 4 -34 3
-29 -4 3 -6 12 -11 20 -11 29 0 25 -21 -7 -34 -28 -13 -36 -13 -55 0 -28 18
-33 18 -33 -1 0 -8 3 -14 8 -13 14 3 62 -25 62 -37 0 -20 -45 -44 -71 -39 -15
4 -20 3 -12 -3 17 -12 -13 -29 -49 -28 -15 1 -24 -3 -22 -7 3 -5 -1 -14 -8
-21 -17 -17 -51 -30 -43 -17 10 16 -11 12 -25 -5 -6 -8 -9 -19 -5 -25 3 -5 0
-10 -7 -11 -7 0 -25 -2 -40 -4 -35 -5 -43 19 -43 123 0 60 -2 70 -12 55 -7 -9
-13 -20 -13 -24 0 -14 -71 -22 -83 -10 -8 8 -3 11 22 11 18 0 30 4 26 9 -3 5
-1 12 5 16 5 3 10 11 10 16 0 6 -4 8 -9 5 -5 -3 -14 8 -20 24 -11 33 -6 38 18
16 12 -11 21 -12 31 -5 13 9 12 10 -2 5 -22 -7 -35 13 -17 26 11 7 9 8 -6 6
-14 -2 -20 2 -19 15 1 9 -2 17 -7 17 -5 0 -9 -11 -9 -24 0 -27 -22 -40 -39
-23 -9 9 -11 8 -5 -6 3 -9 -1 -28 -9 -41 -18 -27 -14 -36 14 -29 12 3 19 14
19 29 0 41 18 35 22 -7 4 -40 3 -41 -24 -37 -32 5 -35 -3 -11 -27 13 -13 27
-16 60 -11 39 5 43 4 43 -16 0 -11 5 -49 12 -85 l12 -63 46 2 c34 3 57 12 86
34 84 67 189 134 209 134 24 0 68 -42 85 -80 l10 -25 -5 27 c-4 20 5 46 30 92
19 35 35 67 35 72 0 16 -38 -29 -59 -70 l-22 -45 -34 22 c-19 12 -34 26 -35
30 0 4 11 30 25 58 22 43 28 48 45 39 26 -14 78 -13 134 4 25 8 49 14 52 14 3
0 8 3 11 5 10 11 -38 17 -56 8 -25 -14 -96 -13 -143 2 -29 9 -36 15 -28 27 8
12 12 12 36 0 41 -22 140 -17 176 10 30 22 37 17 13 -10 -14 -15 -13 -17 6
-15 37 3 69 50 69 101 0 24 5 44 10 44 6 0 10 -4 10 -9 0 -14 50 -71 63 -71 6
0 -3 15 -21 33 -39 40 -40 60 -5 76 l28 13 -20 -24 c-11 -12 -13 -17 -5 -10
20 18 36 15 61 -10 l21 -23 -11 25 c-11 23 -11 24 3 6 9 -11 13 -29 10 -42 -3
-13 2 -33 12 -49 13 -20 24 -25 47 -23 43 4 69 -35 73 -109 l4 -58 -13 41
c-14 47 -28 66 -70 96 l-30 21 17 -25 c9 -14 26 -28 37 -31 12 -3 18 -10 14
-17 -4 -7 -20 0 -45 20 -21 16 -42 30 -47 30 -5 0 -18 7 -29 16 -18 14 -17 15
15 11 31 -4 32 -3 16 10 -24 17 -52 17 -62 -1 -4 -7 -21 -15 -36 -18 -25 -5
-26 -4 -15 11 7 10 1 4 -13 -11 -17 -19 -25 -37 -22 -51 5 -24 -41 -77 -54
-63 -5 4 4 17 20 28 15 11 27 24 27 29 0 5 -10 0 -22 -11 -21 -19 -23 -20 -30
-3 -5 15 -7 14 -8 -7 -2 -14 -2 -30 -1 -37 1 -7 -8 -17 -19 -23 -16 -8 -20 -8
-20 4 0 8 6 17 13 19 9 4 9 6 -1 6 -10 1 -10 6 -1 24 23 44 -5 6 -55 -75 -98
-159 -111 -177 -128 -178 -9 0 -54 -18 -100 -39 -90 -43 -119 -52 -125 -36 -3
11 110 89 153 105 26 10 42 36 29 48 -4 4 -10 1 -12 -5 -3 -7 -14 -13 -24 -13
-19 0 -79 -26 -79 -35 0 -2 17 3 37 11 34 15 36 15 24 0 -7 -9 -17 -16 -22
-16 -19 0 -139 -62 -139 -72 0 -6 -7 -5 -17 3 -15 12 -16 12 -10 -3 9 -24 -23
-40 -62 -32 -27 6 -31 4 -31 -14 0 -12 -5 -24 -10 -27 -6 -4 -8 -10 -5 -15 3
-5 -3 -14 -12 -20 -15 -9 -14 -10 7 -4 22 6 23 5 11 -10 -12 -14 -12 -16 3
-10 9 3 16 1 16 -5 0 -6 -12 -16 -27 -22 -14 -5 -32 -17 -38 -26 -8 -11 -22
-14 -43 -11 -17 2 -29 1 -26 -4 11 -17 84 -8 101 12 17 19 17 19 30 0 8 -11
19 -20 25 -20 7 0 6 6 -2 15 -10 12 -10 18 0 30 9 11 8 20 -9 44 -23 32 -27
46 -9 35 6 -4 16 0 23 9 11 15 84 47 107 47 6 0 5 -7 -2 -15 -11 -13 -8 -13
30 0 85 30 290 58 306 42 4 -4 20 -7 35 -7 36 0 40 -17 20 -80 -9 -29 -15 -66
-12 -84 5 -28 6 -29 9 -6 2 14 10 47 19 74 l16 49 17 -33 c13 -26 18 -29 23
-16 8 19 -12 68 -24 60 -5 -3 -6 2 -3 10 3 9 10 16 15 16 11 0 65 -83 75 -113
6 -18 7 -18 16 -4 6 12 -5 35 -47 92 -31 41 -58 75 -62 75 -3 0 0 -6 6 -14 9
-10 8 -15 -4 -19 -9 -4 -19 2 -25 14 -8 15 -17 18 -33 13 -48 -15 -51 -14 -17
5 19 11 44 20 56 21 12 0 34 12 49 26 l28 25 -32 61 c-35 69 -37 78 -16 78 9
0 29 7 45 15 29 15 30 15 49 -23 21 -41 52 -67 95 -78 14 -3 26 -10 26 -15 0
-5 15 2 34 15 38 25 127 50 219 61 l57 7 0 39 c0 28 -7 47 -27 69 -25 26 -32
28 -63 22 -23 -5 -34 -13 -33 -23 4 -21 -35 -18 -40 3 -3 10 -1 18 4 18 18 0
9 27 -15 45 -52 39 4 74 64 40 l25 -14 -25 -2 c-14 -1 -32 -1 -40 0 -10 0 -11
-1 -2 -5 6 -3 10 -9 7 -14 -7 -11 54 -35 65 -24 4 5 10 18 12 29 2 14 11 20
30 20 21 -1 24 2 16 12 -6 7 -7 13 -2 14 23 2 -65 28 -97 28 -23 1 -51 12 -77
31 -23 16 -43 26 -46 21 -7 -10 38 -53 47 -45 3 3 11 3 17 -1 7 -5 -4 -15 -30
-26 -51 -23 -50 -23 -50 -4 0 8 -4 15 -10 15 -5 0 -10 9 -10 20 0 11 -15 29
-34 42 l-34 23 19 24 c20 24 26 61 10 61 -5 0 -11 6 -14 13 -2 6 -3 4 -2 -5 2
-10 -1 -21 -6 -24 -5 -3 -9 -10 -9 -17 0 -6 7 -2 15 9 8 10 15 14 15 8 0 -14
-25 -36 -32 -28 -3 3 -23 -6 -43 -21 -46 -31 -56 -31 -103 -1 -47 30 -75 61
-79 88 -5 31 -13 35 -28 14 -8 -11 -19 -15 -26 -10 -7 4 -5 -3 4 -17 34 -48
13 -54 -32 -8 -17 17 -31 38 -31 47 0 13 5 11 21 -8 l21 -25 -18 32 c-12 23
-21 29 -26 20 -6 -9 -8 -8 -8 3 0 13 -11 15 -64 12 -63 -4 -112 10 -101 28 3
6 -1 7 -9 4 -9 -3 -16 -2 -16 4 0 5 -8 13 -17 17 -10 3 0 -12 22 -35 22 -22
45 -38 53 -35 7 2 10 0 7 -5 -4 -6 6 -8 25 -5 16 3 44 7 60 10 19 3 29 1 25
-5 -3 -6 -25 -11 -48 -11 -39 -1 -40 -2 -12 -8 l30 -7 -37 -7 c-79 -16 -136 9
-180 81 -45 74 -179 116 -238 75 -22 -16 -23 -16 -17 0 8 20 5 21 -11 5z m732
-275 c24 -17 37 -41 16 -28 -5 3 -10 -1 -10 -9 0 -8 5 -18 10 -21 17 -11 8
-93 -11 -111 -16 -15 -17 -13 -14 30 2 36 -1 49 -15 56 -23 12 -60 -14 -60
-43 1 -20 2 -20 11 -4 5 9 17 17 25 17 29 0 9 -35 -26 -47 -42 -14 -119 -16
-140 -3 -13 8 -13 15 2 57 9 26 16 48 15 49 -1 1 -18 -12 -37 -28 -20 -18 -26
-25 -12 -19 18 9 22 9 22 -2 0 -11 -12 -13 -57 -10 -32 3 -60 7 -62 8 -1 2 17
9 40 15 24 7 59 21 77 32 17 11 32 16 32 12 0 -4 15 7 32 25 18 18 42 37 53
42 28 12 80 4 109 -18z m124 -214 c-11 -32 2 -99 24 -127 6 -7 8 -16 4 -19 -9
-9 -62 23 -59 36 1 5 -7 17 -17 26 -14 13 -20 31 -20 61 0 45 -1 44 67 53 9 1
9 -7 1 -30z m85 -10 c48 -24 97 -75 97 -102 0 -9 -3 -16 -7 -15 -5 0 -15 -2
-23 -5 -8 -4 -33 -13 -56 -21 -40 -14 -40 -13 -51 13 -16 38 -32 122 -26 138
7 18 17 17 66 -8z m261 -14 c18 -27 22 -85 6 -85 -5 0 -10 5 -10 10 0 7 -6 7
-18 1 -9 -5 -35 -10 -57 -12 -22 -2 -44 -8 -48 -14 -5 -5 -5 1 -2 14 4 13 8
30 9 39 3 16 73 72 92 72 6 0 19 -11 28 -25z m-534 -88 c0 -7 9 -30 21 -51 22
-42 22 -81 -1 -81 -8 0 -28 -13 -45 -28 -49 -46 -79 -58 -113 -46 -28 9 -29
12 -16 27 8 9 25 31 39 47 21 26 26 28 44 18 13 -8 28 -10 43 -4 l23 8 -23 7
c-12 4 -26 5 -31 1 -5 -3 -12 -1 -16 5 -3 5 -1 10 4 10 6 0 11 7 11 15 0 9 12
18 30 22 34 6 37 11 14 27 -9 7 -12 18 -8 29 7 18 24 14 24 -6z"/>
<path d="M824 1000 c-25 -10 -80 -74 -87 -101 -3 -11 -4 -19 -2 -19 2 0 24 20
48 44 25 24 63 50 84 56 21 7 42 16 48 21 12 11 -63 11 -91 -1z"/>
<path d="M160 1283 c-11 -12 -16 -43 -17 -96 -1 -76 0 -78 29 -93 l30 -15 -24
31 c-19 26 -23 43 -21 90 1 32 6 68 13 79 13 26 9 27 -10 4z"/>
<path d="M1864 1265 c-12 -8 -24 -12 -27 -9 -3 3 -8 0 -13 -7 -5 -8 -3 -10 6
-4 9 5 11 4 6 -4 -4 -6 -11 -9 -16 -6 -5 3 -33 -24 -63 -60 -71 -86 -92 -152
-90 -290 0 -64 -3 -92 -8 -77 -5 12 -13 22 -19 22 -14 0 -13 -5 14 -58 l23
-47 -30 -77 c-17 -42 -34 -75 -39 -72 -14 9 -38 107 -38 156 0 49 25 128 41
128 18 0 8 16 -11 17 -11 1 -18 -1 -16 -5 2 -4 -4 -19 -15 -32 l-19 -25 0 35
c0 41 -30 94 -62 111 -13 6 -25 13 -26 15 -2 1 17 22 42 47 25 24 46 49 46 56
0 7 -9 3 -21 -10 -18 -21 -20 -22 -15 -4 5 19 5 19 -7 1 -7 -11 -24 -33 -38
-50 -24 -27 -30 -29 -50 -19 -13 7 -35 14 -49 18 -14 3 12 -12 57 -34 90 -43
114 -72 112 -138 l-1 -38 -8 32 c-9 39 -42 96 -55 96 -5 0 -31 11 -56 24 -26
13 -53 23 -60 23 -8 0 9 -11 36 -24 70 -32 79 -45 92 -123 4 -24 1 -34 -11
-39 -22 -8 -20 -20 3 -20 14 0 21 10 25 35 3 19 1 40 -5 47 -7 8 -7 14 0 19 6
3 13 -7 17 -22 3 -15 8 -35 10 -45 3 -9 0 -19 -6 -23 -5 -3 -10 -12 -10 -18 0
-7 11 2 25 18 13 17 24 26 25 22 0 -16 -85 -109 -115 -125 -16 -9 -59 -21 -95
-27 -45 -8 -64 -15 -62 -25 2 -10 0 -11 -11 -2 -12 10 -14 6 -13 -25 1 -20 -4
-38 -11 -40 -12 -4 -12 14 1 35 22 36 -51 23 -85 -15 -13 -14 -17 -22 -9 -17
33 19 42 14 36 -19 -3 -17 -14 -39 -23 -49 -15 -17 -16 -17 -29 7 -7 13 -14
32 -17 42 -4 15 -5 15 -6 -3 -1 -26 -43 -150 -65 -193 -19 -36 -14 -55 8 -26
14 20 41 99 52 155 l7 35 8 -35 c4 -21 3 -40 -3 -47 -6 -7 -11 -34 -12 -61 -1
-47 -2 -47 -53 -72 -72 -34 -70 -57 1 -26 48 21 55 22 61 8 6 -18 -3 -25 -62
-53 -24 -11 -43 -22 -43 -25 0 -6 73 25 84 37 13 12 46 12 46 -1 0 -5 7 -10
16 -10 8 0 30 -11 48 -25 38 -29 48 -31 40 -10 -4 8 -25 23 -48 34 -63 27 -92
106 -70 189 7 26 24 30 24 5 0 -16 2 -16 11 -3 9 12 10 11 6 -7 -3 -12 1 -27
9 -34 11 -9 14 -7 14 10 0 13 9 25 23 31 17 7 18 9 5 9 -41 2 -6 44 59 73 24
10 76 23 116 27 80 10 104 17 130 39 21 19 35 8 17 -13 -21 -25 -84 -54 -116
-53 -16 1 -49 -9 -74 -21 -25 -12 -36 -18 -25 -15 11 4 31 8 45 10 82 11 148
40 179 80 13 16 21 21 21 12 0 -8 -11 -25 -25 -38 -13 -12 -22 -27 -18 -33 3
-6 1 -7 -5 -4 -13 9 -43 -2 -37 -14 8 -12 -17 -49 -32 -49 -8 0 -13 -14 -14
-37 0 -21 -4 -47 -9 -58 -7 -18 -8 -18 -15 7 -8 30 9 94 33 121 8 9 12 17 7
17 -11 0 -43 -39 -49 -59 -20 -70 -37 -154 -33 -165 3 -7 -3 -18 -13 -24 -14
-8 -20 -8 -22 0 -3 7 -7 5 -11 -5 -7 -19 17 -25 28 -7 8 13 25 13 25 -1 0 -19
42 -70 81 -99 33 -24 36 -29 22 -35 -45 -20 -99 8 -147 75 -20 27 -36 55 -36
60 0 6 -5 10 -11 10 -5 0 -7 -5 -3 -12 4 -6 -2 -18 -12 -26 -18 -14 -18 -14 2
-8 23 7 54 -15 54 -39 0 -17 69 -77 81 -70 5 4 9 -1 9 -9 0 -9 7 -16 15 -16
18 0 18 -5 5 -31 -9 -16 -7 -19 8 -19 13 0 27 17 44 56 14 31 28 51 32 46 3
-6 24 -13 46 -17 37 -6 40 -10 46 -46 4 -21 11 -39 16 -39 10 0 8 17 -6 51 -6
13 1 18 31 23 32 5 41 2 56 -17 10 -12 25 -30 32 -39 8 -10 23 -18 32 -18 15
0 14 2 -4 15 -14 10 -19 22 -16 35 3 11 0 20 -6 20 -6 0 -11 -5 -11 -12 0 -16
-29 24 -30 41 0 11 11 12 50 8 63 -8 124 13 179 59 51 44 95 116 87 142 -8 24
3 54 15 46 6 -3 7 -14 4 -23 -3 -11 7 -35 27 -62 22 -30 32 -56 33 -81 0 -21
-3 -38 -7 -38 -11 0 -10 -48 1 -54 5 -4 7 2 4 13 -3 10 0 22 6 25 6 4 11 28
11 53 0 38 2 44 14 34 21 -17 28 -60 17 -98 -10 -33 2 -56 13 -27 9 23 7 141
-2 127 -9 -15 -67 56 -101 124 -38 75 -25 204 35 339 l26 59 -31 -29 c-17 -16
-34 -27 -37 -23 -4 3 -21 -5 -39 -18 -17 -14 -37 -25 -43 -25 -6 0 -14 -5 -18
-11 -10 -17 34 -1 91 33 45 28 48 28 29 7 -12 -13 -25 -37 -29 -54 -6 -27 -8
-28 -15 -10 -4 11 -9 -42 -12 -120 -6 -157 -24 -221 -80 -289 -42 -52 -98 -76
-175 -76 l-63 0 0 43 c1 82 30 134 104 188 21 16 35 29 30 29 -5 0 -18 -7 -28
-15 -27 -21 -46 -19 -46 4 0 11 -4 23 -10 26 -6 4 -7 -6 -4 -24 5 -24 1 -39
-18 -63 -30 -39 -48 -91 -50 -141 -1 -21 -5 -37 -10 -37 -17 0 -69 85 -84 138
-24 83 -5 178 51 244 14 16 33 57 43 89 10 36 22 57 29 55 8 -3 7 7 -4 32 -13
32 -13 39 1 69 19 39 28 41 50 8 23 -34 20 -55 -4 -25 -11 14 -20 21 -20 15 0
-5 12 -23 26 -40 14 -16 22 -23 18 -15 -6 13 -5 13 7 0 8 -8 21 -20 29 -28 13
-12 13 -13 -3 -8 -13 4 -16 2 -10 -7 4 -6 6 -22 4 -34 -3 -30 40 -53 64 -33
18 15 20 41 3 58 -9 9 -4 12 24 12 66 0 148 53 148 95 0 6 18 30 40 53 37 37
56 83 28 66 -8 -5 -9 -2 -5 9 9 25 2 21 -18 -9 -9 -15 -12 -23 -6 -20 14 9 14
-9 1 -35 -13 -24 -32 -25 -23 -1 5 14 2 13 -18 -5 -13 -12 -37 -23 -54 -26
l-30 -4 33 -8 c17 -4 32 -12 32 -17 0 -14 -100 -55 -152 -63 l-45 -7 -45 59
c-54 70 -69 96 -79 143 -11 49 0 123 17 116 8 -3 14 -1 14 4 0 20 19 9 22 -12
4 -27 49 -37 71 -17 11 11 11 17 0 41 -8 15 -17 28 -19 28 -3 0 -2 -4 1 -10 3
-5 1 -10 -4 -10 -6 0 -11 4 -11 9 0 5 -10 7 -22 3 -14 -3 -19 -2 -14 6 4 7 1
12 -9 12 -9 0 -14 -4 -11 -8 2 -4 -4 -13 -15 -20 -18 -11 -19 -9 -19 25 1 28
9 48 34 76 30 34 33 35 28 12 -2 -14 -9 -25 -16 -25 -6 0 -5 -4 3 -9 8 -5 20
-7 27 -4 7 2 22 -1 34 -7 18 -10 21 -9 18 2 -3 7 -14 14 -26 16 -34 5 -27 38
16 77 20 19 40 35 43 35 4 0 9 9 12 20 6 24 7 24 -19 5z m-150 -477 c-9 -14
-22 15 -23 47 0 16 2 15 15 -8 8 -15 12 -33 8 -39z m-158 -81 c-2 -18 -6 -39
-10 -47 -9 -21 -65 -58 -122 -80 -27 -11 -41 -19 -31 -20 23 0 115 46 145 73
13 12 22 16 22 8 0 -47 -65 -85 -165 -96 -72 -9 -157 -46 -185 -82 -19 -24
-22 -25 -36 -11 -13 13 -10 19 28 51 24 20 51 44 61 52 10 9 15 21 11 27 -4 6
-3 8 3 5 6 -4 18 4 27 17 12 18 12 26 3 29 -6 3 5 6 27 6 64 2 116 22 165 67
25 23 49 40 54 37 4 -2 6 -19 3 -36z m144 -21 c0 -16 -24 -65 -30 -61 -4 3
-11 -11 -15 -31 -3 -20 -16 -46 -28 -58 -12 -12 -22 -27 -23 -34 -2 -29 -5
-33 -16 -26 -8 5 -9 2 -5 -10 4 -10 3 -15 -3 -11 -29 18 -25 -192 5 -240 29
-47 57 -75 68 -68 5 3 2 -8 -9 -26 -20 -33 -36 -37 -81 -20 -58 22 -104 82
-117 151 -12 67 43 175 116 228 21 15 35 30 31 33 -3 3 6 20 20 37 15 17 32
50 38 73 13 45 26 67 40 67 5 0 9 -2 9 -4z m-280 -391 c5 14 9 1 15 -43 4 -35
5 -66 2 -68 -11 -11 -28 38 -32 89 -2 29 -1 41 2 27 5 -23 6 -24 13 -5z m284
-190 c4 -12 -3 -15 -31 -15 -30 0 -34 2 -23 15 7 8 20 15 30 15 10 0 20 -7 24
-15z"/>
<path d="M1520 699 c-16 -19 -46 -38 -80 -50 -30 -10 -47 -18 -38 -19 9 0 28
4 42 10 14 5 26 6 26 1 0 -5 -17 -12 -37 -16 -26 -5 -33 -9 -23 -15 26 -16 99
40 129 98 16 30 11 28 -19 -9z"/>
<path d="M1330 618 c0 -6 -10 -23 -22 -36 -20 -21 -20 -24 -5 -19 10 4 23 7
28 7 5 0 9 8 9 18 0 10 5 23 12 30 9 9 8 12 -5 12 -9 0 -17 -5 -17 -12z"/>
<path d="M1180 1255 c-9 -10 -11 -33 -7 -70 3 -31 2 -55 -4 -55 -5 0 -9 -7 -9
-16 0 -8 -5 -12 -11 -8 -8 4 -9 -1 -4 -15 12 -40 16 -98 5 -81 -6 9 -10 10
-10 3 0 -20 21 -26 37 -10 15 14 10 42 -6 33 -11 -7 -7 56 5 76 8 15 12 14 29
-12 22 -32 89 -74 108 -67 6 3 3 6 -8 6 -16 1 -14 4 11 20 32 20 52 41 37 41
-4 0 -21 -9 -38 -20 -32 -21 -84 -30 -55 -9 13 9 13 10 -2 6 -11 -4 -26 6 -44
30 -27 36 -30 56 -20 131 5 36 3 38 -14 17z"/>
<path d="M1253 1225 c-7 -27 -10 -51 -8 -53 6 -7 26 68 23 85 -3 10 -9 -4 -15
-32z"/>
<path d="M1796 1255 c-10 -8 -22 -12 -26 -10 -4 3 -10 -7 -13 -21 -4 -25 -4
-25 29 7 31 30 39 40 32 39 -2 0 -12 -7 -22 -15z"/>
<path d="M2880 1258 c0 -10 9 -23 20 -30 11 -7 20 -18 20 -25 0 -7 5 -13 10
-13 16 0 12 18 -8 32 -10 7 -24 22 -30 33 -10 17 -11 18 -12 3z"/>
<path d="M2000 1253 c-2 -7 -3 -22 -4 -33 -1 -21 -43 -56 -53 -46 -4 3 3 16
15 29 12 13 22 27 22 32 0 11 -32 -23 -48 -50 -8 -14 -12 -16 -12 -5 -1 26
-29 -33 -30 -62 0 -16 -4 -28 -10 -28 -18 0 -11 -16 25 -56 20 -22 31 -29 25
-17 -18 37 -12 90 12 113 12 11 25 20 29 20 4 0 17 13 28 28 16 23 18 35 11
58 -4 16 -9 23 -10 17z"/>
<path d="M2608 1236 c-25 -6 -49 -13 -52 -16 -8 -9 38 -6 52 3 7 5 33 10 58
12 26 2 49 6 52 9 9 10 -60 4 -110 -8z"/>
<path d="M2727 1236 c-3 -8 0 -17 8 -20 9 -3 12 0 9 9 -4 9 4 15 28 18 l33 4
-36 1 c-24 1 -39 -3 -42 -12z"/>
<path d="M2150 1212 c4 -15 11 -34 15 -43 4 -10 0 -19 -9 -22 -13 -5 -16 -23
-16 -87 0 -47 4 -80 10 -80 6 0 10 32 10 77 0 106 18 83 30 -38 l9 -94 -5 114
c-2 63 -9 121 -15 128 -6 7 -9 21 -7 31 3 11 -2 23 -13 30 -16 10 -17 8 -9
-16z"/>
<path d="M2194 1225 c14 -35 36 -119 37 -145 1 -14 5 -2 9 25 8 56 3 85 -11
63 -6 -9 -9 -3 -9 18 0 17 -8 38 -17 45 -15 12 -16 12 -9 -6z"/>
<path d="M2786 1222 c-3 -5 4 -16 15 -25 18 -16 19 -16 19 8 0 24 -23 35 -34
17z"/>
<path d="M1282 1184 c-19 -20 -36 -33 -40 -30 -6 7 -32 -13 -32 -25 0 -5 7 -9
16 -9 10 0 14 6 11 14 -4 11 1 13 23 11 23 -3 35 3 55 26 14 17 25 36 25 42 0
6 -7 2 -15 -9 -13 -16 -14 -16 -9 -1 8 23 4 21 -34 -19z"/>
<path d="M1856 1178 c-7 -36 2 -53 11 -20 3 12 9 19 14 16 14 -8 11 6 -5 21
-12 12 -15 9 -20 -17z"/>
<path d="M1392 1160 c-13 -16 -28 -30 -34 -30 -6 0 -3 10 8 22 l19 22 -29 -22
c-16 -12 -36 -22 -45 -22 -14 0 -14 -2 -1 -10 11 -7 6 -10 -20 -11 -32 -1 -33
-2 -10 -9 14 -4 19 -8 11 -9 -8 -1 -12 -4 -9 -7 9 -8 59 27 52 37 -3 5 0 9 5
9 6 0 11 -5 11 -12 0 -13 47 29 61 55 15 26 5 20 -19 -13z"/>
<path d="M2500 1172 c0 -4 6 -14 13 -21 10 -11 9 -13 -5 -8 -10 3 -20 2 -23
-3 -4 -6 3 -10 14 -10 10 0 26 -3 35 -6 25 -10 18 19 -9 39 -14 10 -25 14 -25
9z"/>
<path d="M2882 1161 c-8 -4 -13 -11 -13 -15 1 -3 0 -9 0 -13 -1 -5 -2 -15 -3
-23 -1 -10 -9 -14 -23 -12 -17 2 -21 -1 -17 -12 3 -8 12 -12 19 -9 8 3 29 -12
50 -34 19 -21 35 -32 35 -25 0 6 -4 12 -10 12 -5 0 -10 5 -10 11 0 13 -20 34
-40 42 -12 4 -11 6 3 6 10 1 15 5 12 11 -8 13 14 52 25 45 6 -3 7 1 4 9 -7 18
-13 19 -32 7z"/>
<path d="M1431 1131 c-7 -11 -17 -20 -23 -18 -7 1 -17 -8 -23 -20 -5 -13 -13
-23 -18 -23 -5 0 -15 -7 -23 -15 -10 -9 -11 -15 -4 -15 16 0 116 97 108 105
-3 4 -11 -3 -17 -14z"/>
<path d="M455 1130 c-3 -4 2 -13 10 -20 8 -7 15 -18 15 -24 0 -17 164 -21 202
-5 19 8 25 15 18 19 -7 4 -24 1 -39 -6 -14 -8 -52 -14 -84 -14 -51 0 -62 4
-88 29 -16 16 -31 26 -34 21z"/>
<path d="M2930 1131 c0 -6 5 -13 10 -16 6 -4 8 -16 4 -28 -6 -21 -6 -21 12 -2
13 13 15 20 6 23 -6 2 -12 10 -12 18 0 8 -4 14 -10 14 -5 0 -10 -4 -10 -9z"/>
<path d="M217 1118 c-6 -17 15 -43 26 -31 10 10 8 35 -2 29 -5 -4 -11 -1 -13
6 -3 8 -7 6 -11 -4z"/>
<path d="M932 1118 c-9 -9 -7 -14 6 -24 20 -16 32 -17 32 -5 0 5 -8 12 -17 14
-12 3 -10 5 7 6 20 1 22 3 10 11 -19 13 -24 12 -38 -2z"/>
<path d="M88 1073 c-16 -32 -13 -96 3 -72 8 12 12 11 24 -5 13 -18 14 -17 12
12 -2 27 -6 32 -27 33 -23 0 -23 1 -5 9 11 5 16 9 10 10 -5 1 -2 5 8 9 17 6
17 8 4 20 -13 10 -18 8 -29 -16z"/>
<path d="M1177 1086 c-4 -9 -1 -15 5 -13 6 1 13 -4 16 -12 3 -10 0 -11 -9 -5
-8 4 -3 -7 11 -25 14 -17 41 -41 60 -53 34 -19 21 -5 -24 28 -32 23 -11 27 25
5 19 -12 41 -21 48 -21 8 0 -7 11 -35 25 -27 14 -59 39 -70 56 -17 23 -23 27
-27 15z"/>
<path d="M2620 1080 c11 -20 10 -21 -9 -15 -19 6 -20 4 -10 -24 6 -17 13 -31
16 -31 3 0 3 6 0 14 -3 8 5 19 18 26 26 14 25 24 -6 41 -19 10 -20 9 -9 -11z"/>
<path d="M692 1044 c-36 -28 -52 -34 -90 -34 -26 0 -61 4 -78 9 -23 6 -31 5
-31 -4 0 -10 22 -16 71 -20 62 -5 77 -3 119 18 26 13 44 26 41 30 -4 4 -1 13
6 22 18 22 10 18 -38 -21z"/>
<path d="M2790 1054 c0 -10 3 -14 6 -11 4 3 16 2 26 -4 16 -8 24 -7 36 5 14
13 13 15 -4 14 -10 -1 -29 2 -41 6 -18 6 -23 4 -23 -10z"/>
<path d="M2753 1049 c-31 -11 -30 -39 1 -39 29 0 36 8 27 31 -4 12 -12 14 -28
8z"/>
<path d="M330 1031 c-15 -4 -32 -21 -43 -43 -17 -35 -21 -37 -57 -34 -31 3
-44 -2 -61 -20 -17 -18 -25 -21 -31 -12 -6 10 -8 8 -8 -4 0 -9 5 -20 10 -23 6
-3 10 -2 10 4 0 6 11 13 25 17 14 3 25 10 25 15 0 5 5 9 10 9 6 0 9 -3 9 -7
-3 -19 2 -33 11 -33 5 0 7 7 4 15 -6 14 6 19 44 18 6 -1 12 7 12 17 0 27 33
63 71 76 36 13 13 17 -31 5z"/>
<path d="M1603 970 c0 -36 2 -50 4 -32 2 17 2 47 0 65 -2 17 -4 3 -4 -33z"/>
<path d="M2800 1010 c0 -12 7 -20 18 -20 14 0 15 -2 2 -10 -8 -5 -11 -12 -7
-16 12 -13 27 10 21 33 -8 29 -34 39 -34 13z"/>
<path d="M2905 956 c0 -24 3 -47 6 -50 3 -3 5 7 4 23 -1 22 4 31 19 36 18 6
19 8 4 12 -10 2 -18 9 -18 14 0 5 -3 9 -7 9 -5 0 -8 -20 -8 -44z"/>
<path d="M420 971 c0 -6 4 -11 10 -11 5 0 36 -20 67 -44 40 -31 69 -45 95 -47
55 -5 56 7 2 15 -32 4 -63 18 -98 44 -67 50 -76 55 -76 43z"/>
<path d="M2488 955 c3 -15 11 -25 22 -25 10 0 21 -7 24 -16 4 -9 9 -14 12 -11
7 6 -44 77 -56 77 -4 0 -5 -11 -2 -25z"/>
<path d="M2789 943 c0 -4 -2 -16 -4 -25 -2 -10 1 -18 6 -18 5 0 9 7 9 15 0 8
5 15 10 15 6 0 10 -8 10 -19 0 -14 7 -18 28 -17 16 1 29 6 29 13 0 7 -5 9 -11
6 -6 -4 -5 1 3 10 12 15 11 17 -3 17 -9 0 -16 -7 -16 -15 0 -8 -4 -15 -10 -15
-5 0 -10 4 -10 10 0 11 -40 34 -41 23z"/>
<path d="M1841 887 c-1 -32 21 -33 27 -2 2 10 0 15 -6 11 -6 -3 -13 0 -15 6
-3 7 -6 0 -6 -15z"/>
<path d="M2565 839 c5 -25 22 -39 45 -38 11 1 10 3 -2 6 -10 2 -18 10 -18 18
0 7 -7 18 -15 25 -12 10 -13 8 -10 -11z"/>
<path d="M270 839 c0 -5 6 -9 14 -9 8 0 22 -10 30 -22 9 -12 19 -19 22 -15 4
4 14 1 22 -5 7 -7 23 -13 34 -15 16 -3 14 2 -11 23 -17 14 -35 23 -40 20 -5
-4 -14 1 -18 9 -10 17 -53 29 -53 14z"/>
<path d="M1832 823 c-6 -3 -9 -10 -5 -16 4 -7 8 -16 8 -22 0 -5 9 -11 20 -13
16 -2 17 -1 6 7 -11 7 -8 10 13 13 l28 3 -29 16 c-15 9 -34 14 -41 12z"/>
<path d="M52 808 c3 -21 -13 -59 -23 -53 -5 4 -9 -1 -9 -10 0 -9 -4 -14 -8
-11 -4 2 -8 -4 -8 -14 0 -11 6 -22 14 -25 9 -3 12 1 7 15 -4 13 -1 22 8 26 9
3 18 16 21 30 4 13 11 24 17 24 6 0 8 -4 5 -9 -10 -15 30 -19 49 -5 15 11 16
17 7 26 -9 9 -12 8 -12 -4 0 -21 -29 -17 -42 5 -11 20 -30 23 -26 5z"/>
<path d="M2176 789 c-13 -32 -14 -32 -16 -9 l-1 25 -15 -28 c-14 -26 -11 -53
5 -42 15 8 128 -35 149 -58 38 -40 63 -158 69 -320 3 -81 9 -150 14 -152 4 -3
15 15 24 40 21 53 14 145 -15 225 -18 50 -15 61 8 38 7 -7 20 -13 30 -13 9 0
18 -8 20 -18 5 -25 89 -110 97 -97 9 14 -103 129 -132 136 -23 6 -43 31 -43
54 0 6 13 2 29 -9 16 -12 35 -21 42 -21 6 0 -6 13 -28 29 -40 29 -106 102 -98
109 2 2 32 -16 67 -41 35 -24 83 -55 108 -67 47 -24 226 -71 263 -69 22 1 5 6
-136 39 -79 19 -168 67 -232 127 -35 33 -82 55 -153 72 -54 14 -59 19 -41 53
6 11 8 22 5 25 -3 3 -12 -10 -20 -28z"/>
<path d="M446 794 c1 -6 -2 -16 -8 -22 -11 -11 -1 -35 12 -27 4 3 10 -2 14
-10 8 -21 23 -19 29 4 6 23 -9 51 -28 51 -7 0 -15 3 -18 8 -2 4 -3 2 -1 -4z"/>
<path d="M2084 762 c-6 -4 -9 -14 -5 -23 5 -14 9 -13 31 8 23 21 23 23 5 23
-11 0 -25 -4 -31 -8z"/>
<path d="M2504 752 c19 -22 19 -22 0 -22 -11 0 -26 6 -34 13 -12 10 -12 9 -1
-6 8 -9 25 -17 40 -17 14 0 46 -2 71 -5 l45 -5 -44 16 c-25 9 -56 23 -70 32
l-26 16 19 -22z"/>
<path d="M316 712 c-3 -5 1 -18 9 -28 13 -17 14 -18 15 -1 0 9 0 20 1 24 1 11
-18 15 -25 5z"/>
<path d="M2880 704 c25 -9 56 -24 70 -34 33 -22 61 -35 35 -16 -11 8 -29 22
-40 31 -20 16 -20 16 3 12 12 -3 22 -1 22 4 0 5 -17 9 -37 8 -21 0 -51 2 -68
6 -17 3 -10 -2 15 -11z"/>
<path d="M397 696 c-16 -12 -15 -14 18 -20 19 -4 35 -11 35 -16 0 -6 12 -9 28
-9 16 1 20 3 10 6 -10 2 -18 9 -18 14 0 5 -9 9 -20 9 -11 0 -20 7 -20 15 0 18
-9 19 -33 1z"/>
<path d="M2610 701 c-73 -6 -74 -7 -30 -13 25 -4 87 -10 139 -13 52 -3 99 -9
105 -13 6 -3 22 -8 36 -10 14 -1 51 -15 83 -31 67 -32 76 -27 14 9 -51 30
-124 50 -197 55 -30 1 -56 8 -58 14 -2 6 -7 10 -10 9 -4 -1 -41 -4 -82 -7z"/>
<path d="M953 633 c12 -29 28 -55 35 -57 13 -6 -15 54 -42 89 -10 13 -8 1 7
-32z"/>
<path d="M635 642 c11 -9 30 -28 43 -42 12 -13 22 -19 22 -13 0 16 -56 73 -72
73 -8 0 -6 -6 7 -18z"/>
<path d="M195 640 c3 -5 2 -10 -4 -10 -6 0 -15 -10 -21 -22 -11 -22 -10 -22 4
-4 18 22 18 23 37 -24 20 -52 20 -58 -12 -90 -22 -21 -28 -36 -25 -55 3 -15 1
-23 -5 -20 -5 4 -7 10 -4 15 3 4 -1 10 -8 13 -21 8 -8 -42 14 -56 22 -14 26
-57 5 -57 -8 0 -16 6 -19 13 -2 6 -2 1 0 -13 7 -38 18 -43 53 -25 30 16 31 17
16 41 -17 24 -15 28 16 25 10 -1 26 3 35 9 15 10 14 10 -9 6 -32 -7 -78 11
-78 31 0 16 40 73 52 73 4 0 8 -8 8 -17 0 -9 3 -14 6 -11 4 5 -24 116 -43 164
-3 8 1 14 10 14 10 0 21 -29 37 -106 12 -58 19 -108 16 -111 -3 -4 -6 1 -6 10
0 10 -8 17 -20 17 -18 0 -19 -2 -8 -20 16 -26 52 -22 56 5 2 11 14 28 25 38
12 10 16 16 10 12 -23 -11 -51 14 -57 52 -18 100 -25 113 -57 113 -18 0 -28
-4 -24 -10z"/>
<path d="M2530 641 c0 -8 90 -54 96 -49 1 2 -20 15 -47 30 -27 14 -49 23 -49
19z"/>
<path d="M10 631 c10 -7 11 -11 3 -11 -7 0 -13 -4 -13 -10 0 -5 7 -7 15 -4 8
4 15 1 15 -6 0 -7 7 -10 14 -7 8 3 29 -1 46 -9 33 -17 60 -13 60 8 0 10 -2 10
-8 1 -8 -13 -52 -7 -52 7 0 7 -13 13 -75 35 -16 6 -17 5 -5 -4z"/>
<path d="M2741 621 c-18 -11 -4 -34 16 -27 9 4 21 2 28 -4 8 -7 12 -5 12 5 0
8 -6 15 -14 15 -7 0 -13 5 -13 10 0 12 -10 13 -29 1z"/>
<path d="M956 553 c-13 -4 -15 -7 -7 -13 10 -6 10 -12 0 -28 -7 -12 -10 -24
-6 -28 11 -11 39 18 34 37 -3 12 0 16 10 12 10 -4 14 -1 11 7 -5 16 -16 19
-42 13z"/>
<path d="M40 519 c0 -5 4 -8 9 -5 5 4 11 1 13 -5 2 -7 13 -9 26 -5 12 4 19 12
16 18 -4 7 -9 7 -13 0 -4 -7 -12 -8 -21 -2 -20 13 -30 12 -30 -1z"/>
<path d="M1744 480 c13 -30 26 -63 30 -74 5 -14 12 -17 34 -12 15 4 44 9 65
13 20 3 37 10 37 16 0 6 -16 7 -42 3 -24 -3 -52 -7 -62 -9 -14 -1 -22 6 -27
28 -5 17 -20 44 -34 60 l-25 30 24 -55z"/>
<path d="M2108 496 c-6 -30 -1 -57 17 -110 13 -39 29 -89 34 -111 7 -30 9 -34
10 -14 1 14 -9 52 -20 85 -12 32 -24 88 -28 124 -6 63 -7 64 -13 26z"/>
<path d="M2533 513 c9 -2 17 -9 17 -14 0 -5 13 -9 29 -9 15 0 41 -4 57 -9 16
-5 49 -12 74 -15 25 -2 57 -9 73 -15 15 -6 27 -8 27 -6 0 3 11 -2 24 -10 16
-11 26 -13 31 -5 3 6 3 9 -2 8 -4 -1 -18 3 -31 10 -20 12 -294 74 -310 71 -4
-1 1 -3 11 -6z"/>
<path d="M2633 440 c14 -20 35 -56 46 -80 11 -25 21 -38 21 -30 0 27 -37 95
-65 120 l-28 25 26 -35z"/>
<path d="M665 436 c-70 -18 -101 -32 -143 -63 -20 -15 -39 -28 -41 -30 -2 -2
-2 -6 2 -9 3 -3 21 6 39 20 42 32 92 53 182 76 43 11 59 19 41 19 -16 -1 -52
-6 -80 -13z"/>
<path d="M1345 436 c-13 -9 -15 -15 -6 -20 8 -5 8 -13 0 -27 -6 -12 -9 -22 -7
-24 2 -2 13 14 25 36 23 41 18 57 -12 35z"/>
<path d="M750 426 c-43 -16 -153 -80 -200 -116 -55 -42 -57 -42 -54 -12 3 20
1 17 -7 -8 -5 -19 -19 -43 -30 -52 -19 -16 -19 -19 -5 -47 24 -45 19 -52 -19
-28 -22 14 -32 27 -29 37 13 33 9 43 -19 44 -16 1 -31 -2 -33 -6 -3 -4 -16 -8
-30 -8 -32 0 -30 -14 6 -53 27 -29 36 -61 31 -104 -1 -7 2 -13 7 -13 5 0 12
23 16 50 4 28 8 50 11 50 20 0 55 -23 60 -41 6 -17 9 -19 16 -8 12 19 11 66
-1 74 -39 24 221 207 340 239 55 15 55 15 15 15 -22 0 -56 -6 -75 -13z m-357
-230 c-8 -43 -15 -48 -41 -30 -21 15 -32 42 -12 29 6 -3 10 0 10 9 0 14 14 23
37 23 8 0 10 -11 6 -31z"/>
<path d="M2454 369 c11 -34 22 -57 23 -52 6 17 -22 106 -34 110 -5 2 -1 -24
11 -58z"/>
<path d="M1650 400 c-11 -11 -20 -25 -20 -31 0 -6 7 -4 15 4 8 9 33 18 55 22
22 4 38 11 34 16 -10 16 -64 9 -84 -11z"/>
<path d="M397 372 l-29 -37 31 33 31 33 11 -24 c12 -26 -2 -67 -23 -67 -6 0
-5 7 3 18 13 16 13 16 -7 0 -11 -10 -26 -18 -32 -18 -15 0 -15 -11 1 -32 12
-15 15 -14 36 8 13 14 26 22 30 18 3 -3 -2 -12 -12 -19 -10 -7 -14 -16 -9 -19
14 -9 33 18 42 61 8 32 6 41 -12 60 -12 13 -24 23 -27 23 -3 0 -19 -17 -34
-38z"/>
<path d="M2737 350 c13 -33 21 -65 18 -70 -3 -5 -1 -18 4 -27 9 -16 10 -14 11
9 0 29 -36 134 -49 143 -5 2 2 -22 16 -55z"/>
<path d="M747 339 c-70 -82 -138 -237 -135 -309 1 -33 1 -34 5 -5 13 98 55
195 127 293 53 71 54 81 3 21z"/>
<path d="M1272 356 c-12 -28 0 -87 22 -105 22 -18 26 46 6 91 -17 38 -17 38
-28 14z"/>
<path d="M1150 335 c0 -27 63 -105 85 -105 8 0 1 13 -15 28 -16 16 -32 45 -35
65 -8 42 -35 51 -35 12z"/>
<path d="M2551 326 c-6 -16 -14 -26 -18 -22 -3 3 -15 -2 -25 -11 -14 -13 -21
-14 -27 -5 -4 8 -16 -8 -30 -42 -25 -62 -46 -85 -62 -69 -16 16 -103 -10 -145
-42 -31 -24 -39 -36 -35 -59 1 -4 -2 -13 -7 -20 -13 -16 -22 -56 -13 -56 4 0
14 18 21 40 7 22 21 47 32 56 10 10 18 23 18 31 0 8 5 11 10 8 6 -3 10 -2 10
3 0 15 32 24 43 13 7 -7 2 -14 -16 -20 -14 -6 -31 -20 -38 -33 -12 -23 -12
-23 15 1 19 18 29 22 37 14 8 -8 21 -4 46 13 41 28 53 30 53 9 0 -20 52 -45
95 -45 19 0 35 -4 35 -10 0 -5 -17 -10 -38 -10 -26 0 -45 -7 -57 -20 -22 -24
-18 -25 28 -5 20 8 48 15 62 15 14 0 25 5 25 12 0 8 6 6 16 -4 16 -15 15 -18
-12 -43 l-29 -27 29 21 c36 26 51 26 76 1 11 -11 20 -16 20 -12 0 12 -34 42
-47 42 -5 0 -18 9 -28 20 -10 11 -21 17 -26 15 -4 -3 -10 -1 -14 5 -3 5 -1 10
4 10 6 0 11 5 11 11 0 6 18 54 40 106 22 52 38 98 34 104 -3 5 -21 7 -39 3
-27 -5 -34 -2 -38 13 -3 15 -6 13 -16 -11z m59 -40 c0 -2 -11 -28 -25 -58 -14
-29 -25 -61 -25 -70 0 -21 -27 -23 -65 -6 -25 11 -29 19 -25 48 2 19 49 70 75
80 21 9 65 13 65 6z m-139 -140 c15 -14 42 -26 60 -28 l34 -4 -29 -8 c-34 -10
-70 6 -94 42 -19 29 -3 28 29 -2z"/>
<path d="M900 330 c-24 -15 -19 -179 8 -254 12 -33 27 -65 33 -70 9 -8 9 -6 1
10 -12 22 -52 166 -52 184 0 6 6 8 13 4 9 -5 9 -4 1 5 -12 13 -8 90 6 104 4 5
17 -15 28 -45 25 -65 28 -54 5 19 -18 56 -20 58 -43 43z"/>
<path d="M116 298 c-3 -17 -2 -36 4 -42 7 -7 10 4 10 32 0 50 -5 54 -14 10z"/>
<path d="M1821 280 c-39 -40 -69 -100 -50 -100 5 0 9 7 9 16 0 9 25 40 55 70
33 31 49 54 40 54 -8 0 -33 -18 -54 -40z"/>
<path d="M143 245 c0 -22 5 -46 10 -52 5 -7 7 -13 3 -13 -10 0 21 -55 40 -71
16 -13 16 -12 4 11 -7 14 -19 32 -27 41 -12 14 -12 17 3 23 9 4 26 4 38 1 17
-5 17 -3 -4 9 -30 18 -44 20 -34 4 4 -7 3 -8 -5 -4 -6 4 -9 11 -6 16 3 4 -1
23 -9 41 l-14 34 1 -40z"/>
<path d="M820 212 c0 -40 5 -74 11 -78 6 -3 9 -17 6 -31 -2 -13 -1 -21 4 -16
9 9 -4 180 -15 190 -3 3 -6 -26 -6 -65z"/>
<path d="M0 266 c0 -10 73 -75 79 -71 5 2 14 -14 20 -36 7 -23 14 -39 17 -37
2 3 -3 26 -12 52 -14 39 -14 49 -3 63 13 15 12 15 -7 5 -16 -9 -26 -7 -50 9
-28 18 -44 24 -44 15z"/>
<path d="M3 168 c-2 -18 0 -20 7 -8 7 11 10 6 11 -20 1 -19 3 -27 6 -17 6 22
-4 67 -15 67 -4 0 -9 -10 -9 -22z"/>
<path d="M918 175 c13 -26 100 -108 132 -125 20 -11 19 -7 -9 23 -19 20 -38
34 -42 31 -4 -2 -26 17 -49 43 -23 27 -37 39 -32 28z"/>
<path d="M308 40 c-6 -40 -3 -49 13 -33 8 8 8 20 2 40 l-10 28 -5 -35z"/>
</g>
</svg>
